# xmcd
#
# Track frame offsets: 
#        300
#        20607
#        35382
#        54340
#        78341
#        96564
#        116748
#        136589
#        159701
#        174852
#        198099
#        214531
#        237443
#
# Disc length: 3531 seconds
#
# Revision: 7
# Processed by: cddbd v1.5.2PL0 Copyright (c) Steve Scherf et al.
# Submitted via: ExactAudioCopy v1.0b1
#
DISCID=a50dc70d
DTITLE=Shemekia Copeland - Wicked
DYEAR=2000
DGENRE=R&B
TTITLE0=It's 2am
TTITLE1=Not Tonight
TTITLE2=Love Scene
TTITLE3=The Other Woman
TTITLE4=Whole Lotta Water
TTITLE5=Beat Up Guitar
TTITLE6=Miss Hy Ciditty
TTITLE7=Up On 1-2-5
TTITLE8=Wild, Wild Woman
TTITLE9=The Fool You're Looking For
TTITLE10=If He Moves His Lips
TTITLE11=Steamy Windows
TTITLE12=It's My Own Tears
EXTD=YEAR: 2000
EXTT0=
EXTT1=
EXTT2=
EXTT3=
EXTT4=
EXTT5=
EXTT6=
EXTT7=
EXTT8=
EXTT9=
EXTT10=
EXTT11=
EXTT12=
PLAYORDER=
